<?xml version="1.0" encoding="iso-8859-1"?>
<!-- Generator: Adobe Illustrator 15.1.0, SVG Export Plug-In . SVG Version: 6.00 Build 0)  -->
<!DOCTYPE svg PUBLIC "-//W3C//DTD SVG 1.1//EN" "http://www.w3.org/Graphics/SVG/1.1/DTD/svg11.dtd">
<svg version="1.1" id="Layer_1" xmlns="http://www.w3.org/2000/svg" xmlns:xlink="http://www.w3.org/1999/xlink" x="0px" y="0px"
	 width="350px" height="300px" viewBox="0 0 350 300" style="enable-background:new 0 0 350 300;" xml:space="preserve">
<path style="fill:none;" d="M240.803,197.02c0,0-16.57-30.174-30.137-52.387L240.803,197.02z"/>
<path style="fill:#FFFFFF;" d="M85.823,59.598H75.73c-26.542-2.686-40.216,21.261-40.216,21.261l-11.822,30.073h62.13V99.73V59.598z
	"/>
<path style="fill:#FFFFFF;" d="M201.885,130.834c-13.686-20.23-50.138-18.377-50.138-18.377l22.729,52.289
	c-16.49,5.936-32.852-31.192-32.852-31.192c-5.729-19.396-23.132-22.622-23.132-22.622h-32.67l24.458,48.824L66.645,197.02h174.158
	l-30.137-52.387C207.49,139.435,204.477,134.673,201.885,130.834z"/>
<path style="fill:#B983FF;" d="M237.242,66.93c0,0-16.398-29.373-54.918-29.373h-80.167c0,0-21.062,3.608-26.427,18.476v3.565
	h10.092V99.73v11.201h32.67c0,0,17.403,3.226,23.132,22.622c0,0,16.362,37.128,32.852,31.192l-22.729-52.289
	c0,0,36.452-1.854,50.138,18.377c2.592,3.839,5.605,8.601,8.781,13.799c13.566,22.213,30.137,52.387,30.137,52.387h62.824
	L237.242,66.93z M164.89,74.262c0,0-26.569,31.229-57.913,0V59.598h57.913V74.262z"/>
<path style="fill:#FFFFFF;" d="M106.978,74.262c31.344,31.229,57.913,0,57.913,0V59.598h-57.913V74.262z"/>
<path style="fill:#081B53;" d="M56.339,267.243c-0.442,0-0.813-0.142-1.119-0.427c-0.306-0.284-0.461-0.668-0.461-1.152v-42.816
	c0-0.482,0.155-0.88,0.461-1.184c0.306-0.309,0.677-0.463,1.119-0.463h5.984c0.442,0,0.813,0.154,1.119,0.463
	c0.309,0.304,0.46,0.701,0.46,1.184v16.969h19.404v-16.969c0-0.482,0.155-0.88,0.458-1.184c0.309-0.309,0.683-0.463,1.119-0.463
	h5.92c0.482,0,0.874,0.154,1.183,0.463c0.303,0.304,0.458,0.701,0.458,1.184v42.816c0,0.441-0.155,0.813-0.458,1.121
	c-0.309,0.307-0.701,0.458-1.183,0.458h-5.92c-0.437,0-0.81-0.151-1.119-0.458c-0.303-0.309-0.458-0.68-0.458-1.121v-17.623H63.903
	v17.623c0,0.441-0.151,0.813-0.46,1.121c-0.307,0.307-0.677,0.458-1.119,0.458H56.339z"/>
<path style="fill:#081B53;" d="M131.034,267.902c-5.832,0-10.452-1.482-13.846-4.439c-3.399-2.963-5.188-7.49-5.361-13.583
	c-0.133-3.683-0.133-7.434,0-11.246c0.173-5.966,2.004-10.472,5.492-13.52c3.487-3.045,8.057-4.569,13.715-4.569
	c5.657,0,10.224,1.524,13.713,4.569c3.485,3.048,5.337,7.554,5.558,13.52c0.131,3.813,0.131,7.563,0,11.246
	c-0.221,6.093-2.017,10.62-5.393,13.583C141.534,266.42,136.907,267.902,131.034,267.902z M131.034,260.34
	c2.806,0,5.119-0.844,6.938-2.533c1.82-1.692,2.795-4.441,2.928-8.258c0.042-1.929,0.063-3.714,0.063-5.359
	c0-1.642-0.021-3.406-0.063-5.295c-0.133-3.814-1.108-6.564-2.928-8.254c-1.82-1.687-4.133-2.533-6.938-2.533
	c-2.765,0-5.056,0.847-6.874,2.533c-1.82,1.689-2.797,4.439-2.928,8.254c-0.085,1.889-0.13,3.653-0.13,5.295
	c0,1.646,0.045,3.431,0.13,5.359c0.131,3.816,1.098,6.565,2.893,8.258C125.927,259.496,128.223,260.34,131.034,260.34z"/>
<path style="fill:#081B53;" d="M171.256,267.243c-0.441,0-0.813-0.151-1.117-0.458c-0.308-0.309-0.463-0.68-0.463-1.121v-42.816
	c0-0.482,0.155-0.88,0.463-1.184c0.305-0.309,0.676-0.463,1.117-0.463h17.035c5.307,0,9.492,1.23,12.564,3.685
	c3.066,2.459,4.602,6.029,4.602,10.718c0,3.291-0.789,6.001-2.365,8.127c-1.578,2.129-3.729,3.671-6.449,4.636l9.605,16.772
	c0.131,0.264,0.201,0.506,0.201,0.725c0,0.395-0.145,0.725-0.43,0.985c-0.287,0.265-0.605,0.395-0.953,0.395h-5.988
	c-0.787,0-1.369-0.196-1.742-0.594c-0.373-0.392-0.666-0.786-0.889-1.184l-8.484-15.586h-9.141v15.784
	c0,0.441-0.154,0.813-0.465,1.121c-0.305,0.307-0.676,0.458-1.115,0.458H171.256z M178.822,242.446h9.271
	c2.674,0,4.67-0.599,5.986-1.807c1.316-1.207,1.975-2.904,1.975-5.097c0-2.193-0.648-3.914-1.941-5.164
	c-1.295-1.249-3.303-1.878-6.02-1.878h-9.271V242.446z"/>
<path style="fill:#081B53;" d="M242.922,267.902c-5.701,0-10.25-1.469-13.646-4.405c-3.398-2.941-5.096-7.567-5.096-13.878v-26.771
	c0-0.482,0.152-0.88,0.457-1.184c0.307-0.309,0.682-0.463,1.123-0.463h5.984c0.436,0,0.809,0.154,1.117,0.463
	c0.305,0.304,0.459,0.701,0.459,1.184v26.771c0,3.591,0.854,6.256,2.563,7.99c1.713,1.73,4.057,2.598,7.039,2.598
	s5.316-0.867,7.01-2.598c1.684-1.734,2.529-4.399,2.529-7.99v-26.771c0-0.482,0.156-0.88,0.459-1.184
	c0.309-0.309,0.701-0.463,1.182-0.463h5.922c0.484,0,0.869,0.154,1.15,0.463c0.287,0.304,0.43,0.701,0.43,1.184v26.771
	c0,6.311-1.676,10.937-5.029,13.878C253.219,266.434,248.668,267.902,242.922,267.902z"/>
<path style="fill:#081B53;" d="M298.082,267.902c-4.078,0-7.496-0.604-10.262-1.811c-2.764-1.207-4.857-2.781-6.279-4.736
	c-1.426-1.951-2.164-4-2.207-6.15c0-0.391,0.137-0.725,0.398-0.985c0.264-0.261,0.594-0.394,0.986-0.394h5.852
	c0.527,0,0.943,0.108,1.25,0.327c0.307,0.224,0.568,0.527,0.791,0.922c0.395,1.273,1.338,2.464,2.83,3.587
	c1.486,1.113,3.703,1.678,6.641,1.678c3.156,0,5.514-0.527,7.07-1.58s2.334-2.478,2.334-4.279c0-1.225-0.416-2.234-1.25-3.023
	c-0.83-0.789-2.123-1.492-3.877-2.105c-1.758-0.612-4.039-1.291-6.842-2.035c-4.912-1.183-8.627-2.766-11.148-4.736
	c-2.52-1.978-3.783-4.936-3.783-8.881c0-2.496,0.693-4.745,2.074-6.738c1.379-1.998,3.352-3.568,5.92-4.705
	c2.563-1.141,5.621-1.711,9.172-1.711c2.85,0,5.375,0.384,7.564,1.151c2.193,0.767,4.023,1.776,5.494,3.024
	c1.469,1.25,2.574,2.598,3.32,4.047c0.742,1.443,1.141,2.827,1.184,4.146c0,0.351-0.123,0.666-0.361,0.95
	c-0.242,0.285-0.582,0.429-1.02,0.429h-6.117c-0.395,0-0.768-0.088-1.119-0.266c-0.352-0.176-0.613-0.502-0.789-0.986
	c-0.262-1.359-1.117-2.521-2.566-3.484c-1.445-0.968-3.311-1.449-5.59-1.449c-2.41,0-4.328,0.452-5.754,1.348
	c-1.426,0.9-2.137,2.248-2.137,4.044c0,1.231,0.359,2.238,1.084,3.03c0.725,0.785,1.877,1.502,3.453,2.133
	c1.58,0.64,3.705,1.309,6.381,2.01c3.727,0.836,6.775,1.801,9.143,2.894c2.371,1.095,4.096,2.488,5.195,4.178
	c1.098,1.688,1.646,3.825,1.646,6.41c0,2.854-0.781,5.308-2.334,7.37c-1.561,2.063-3.742,3.639-6.547,4.734
	C305.076,267.355,301.809,267.902,298.082,267.902z"/>
<g>
	<path style="fill:#081B53;" d="M161.32,108.408h-9.573v8.104l9.732-0.005c0.293,0.016,28.007-0.766,45.731,27.758l30.043,54.707
		l7.104-3.904l-30.15-54.896C193.916,107.513,162.502,108.365,161.32,108.408z"/>
	<path style="fill:#081B53;" d="M159.196,74.574c-14.507,12.844-36.76,11.504-49.602-2.998l-6.067,5.374
		c8.535,9.638,20.441,14.55,32.399,14.55c10.186,0,20.412-3.57,28.612-10.833c1.284-1.114,2.544-2.354,3.746-3.698
		c0.666-0.744,1.037-1.705,1.037-2.707V59.598c0-2.238-1.814-4.051-4.052-4.051h-58.707v8.105h20.976
		c-0.764,1.412-1.244,3.011-1.244,4.731c0,5.521,4.479,9.991,9.999,9.991s9.994-4.471,9.994-9.991c0-1.721-0.474-3.319-1.242-4.731
		h16.17v9.012C160.561,73.34,159.886,73.974,159.196,74.574z"/>
	<path style="fill:#081B53;" d="M245.018,72.247c-11.967-23.899-35.994-38.745-62.693-38.745h-75.347
		c-12.752,0-24.728,6.219-32.047,16.631c-0.005,0.006-0.005,0.008-0.007,0.012l-3.816,5.408c-0.3,0-0.594,0.043-0.876,0.111
		c-18.938,1.184-35.665,13.517-42.209,31.477c0,0,0,0.004,0,0.006l-8.137,22.402c-0.032,0.085-0.042,0.172-0.066,0.261
		c-0.041,0.136-0.083,0.274-0.107,0.421c-0.029,0.148-0.034,0.293-0.045,0.441c-0.006,0.086-0.027,0.172-0.027,0.26
		c0,0.031,0.011,0.061,0.011,0.093c0.002,0.155,0.024,0.31,0.045,0.461c0.016,0.114,0.027,0.231,0.051,0.344
		c0.032,0.134,0.08,0.256,0.123,0.386c0.04,0.123,0.074,0.248,0.127,0.365c0.054,0.115,0.12,0.225,0.182,0.336
		c0.066,0.111,0.125,0.229,0.2,0.336c0.078,0.107,0.165,0.203,0.25,0.304c0.083,0.096,0.162,0.196,0.253,0.288
		c0.09,0.087,0.194,0.162,0.293,0.24c0.106,0.087,0.213,0.175,0.33,0.25c0.093,0.059,0.198,0.108,0.296,0.162
		c0.141,0.074,0.28,0.146,0.426,0.205c0.029,0.011,0.054,0.026,0.083,0.037c0.106,0.043,0.218,0.059,0.325,0.088
		c0.102,0.029,0.198,0.062,0.301,0.082c0.253,0.049,0.506,0.076,0.756,0.076c0.003,0,0.003,0,0.008,0h59.62l21.917,43.748
		l-41.225,35.207l5.265,6.162l39.699-33.903l5.894,11.763l7.247-3.629l-6.792-13.559l0.213-0.182l-0.735-0.857l-22.421-44.756
		l13.922-0.012c0.205-0.031,21.158-1.598,28.942,15.286l14.1,26.188c0.245,0.532,5.846,12.361,17.898,12.361
		c0.661,0,1.346-0.036,2.047-0.111h5.185v-8.105h-5.414c-0.165,0-0.325,0.012-0.485,0.033c-7.779,0.918-11.712-7.244-11.984-7.799
		l-14.1-26.183c-10.021-21.763-35.774-19.823-36.534-19.759H85.823h-1.689H29.474l6.163-16.967c0,0,0,0,0.002,0
		c5.726-15.709,20.822-26.26,37.57-26.26h8.561v36.075h8.104v-40.13c0-2.238-1.814-4.051-4.052-4.051h-4.793l0.522-0.74
		c0.002-0.006,0.008-0.006,0.013-0.011c5.798-8.26,15.299-13.188,25.413-13.188h75.347c23.613,0,44.857,13.13,55.455,34.285
		l62.236,122.959l7.227-3.66L245.018,72.247z"/>
</g>
</svg>
